<?xml version="1.0" standalone="no"?>
<!DOCTYPE svg PUBLIC "-//W3C//DTD SVG 20010904//EN"
 "http://www.w3.org/TR/2001/REC-SVG-20010904/DTD/svg10.dtd">
<svg version="1.0" xmlns="http://www.w3.org/2000/svg"
 width="818.000000pt" height="782.000000pt" viewBox="0 0 818.000000 782.000000"
 preserveAspectRatio="xMidYMid meet">

<g transform="translate(0.000000,782.000000) scale(0.100000,-0.100000)"
fill="#000000" stroke="none">
<path d="M5930 4670 c-19 -11 -47 -22 -62 -25 -36 -7 -88 -52 -104 -92 -23
-55 -19 -63 31 -63 25 0 45 -2 45 -4 0 -2 -7 -21 -16 -42 -21 -50 -21 -139 0
-189 20 -48 78 -109 118 -126 l28 -12 -40 -43 c-44 -48 -54 -77 -47 -132 3
-28 -1 -43 -18 -62 -12 -14 -50 -92 -85 -175 -35 -82 -64 -151 -65 -153 -1 -1
-107 19 -236 45 -221 44 -236 48 -272 80 -43 38 -85 43 -133 14 l-30 -19 -242
147 c-133 81 -247 152 -253 158 -8 8 -7 24 4 60 38 117 29 231 -26 347 -42 87
-89 142 -162 190 -318 211 -744 -15 -745 -395 0 -231 178 -436 411 -472 138
-21 285 25 393 123 l54 50 325 -199 c179 -110 334 -202 345 -205 12 -4 29 2
45 15 32 24 13 29 335 -87 112 -41 216 -74 231 -74 16 0 38 8 49 18 11 9 59
105 106 212 48 107 91 199 96 204 4 4 34 -10 67 -32 66 -45 124 -75 203 -108
30 -12 55 -27 55 -33 0 -6 13 -22 29 -34 l29 -24 -105 -169 c-58 -93 -115
-188 -126 -211 l-22 -42 -257 125 c-142 68 -262 124 -268 124 -25 0 -100 -145
-139 -268 -63 -201 -89 -438 -89 -822 0 -297 10 -523 42 -922 18 -214 25 -248
57 -248 7 0 16 -16 19 -38 3 -20 8 -49 10 -64 4 -28 4 -28 -52 -28 -75 0 -133
-28 -161 -79 -41 -73 -46 -71 173 -71 l195 0 0 75 c0 60 -3 75 -15 75 -21 0
-21 117 0 140 11 12 32 177 80 630 79 746 75 710 90 710 7 0 69 -126 138 -280
118 -261 143 -307 349 -645 155 -253 229 -367 244 -371 12 -3 38 1 58 10 l36
15 41 -55 c23 -30 40 -56 38 -58 -2 -2 -25 -15 -51 -30 -26 -15 -56 -42 -68
-60 -28 -46 -27 -156 2 -156 11 0 297 167 317 186 12 10 8 23 -24 77 -28 48
-42 63 -55 60 -25 -7 -73 76 -65 110 6 20 -32 90 -201 373 l-207 348 -63 286
c-45 209 -61 299 -57 332 6 52 -10 183 -33 276 -13 52 -14 65 -3 78 7 9 16 36
19 59 4 39 25 67 190 262 168 198 185 221 185 255 0 34 2 38 25 38 15 0 51 7
81 16 154 46 253 177 253 334 -1 133 -64 244 -154 271 -34 10 -56 9 -149 -11
-120 -25 -175 -23 -228 10 -56 34 -68 70 -65 197 3 97 0 120 -18 160 -26 59
-52 87 -110 121 -41 24 -55 27 -165 29 -102 2 -125 -1 -155 -17z m-1683 -165
c114 -50 197 -168 210 -295 6 -58 -20 -169 -50 -217 -34 -54 -110 -120 -165
-146 -37 -17 -66 -21 -142 -22 -83 0 -102 3 -152 27 -310 145 -259 597 77 682
52 13 161 -1 222 -29z"/>
</g>
</svg>
